{
  "extensionsUsed": [
    "KHR_materials_transmission",
    "KHR_materials_clearcoat",
    "KHR_materials_ior",
    "KHR_materials_specular"
  ],
  "accessors": [
    {
      "bufferView": 0,
      "componentType": 5126,
      "count": 4808,
      "type": "VEC3",
      "max": [
        1175.00024,
        36.00301,
        1756.00208
      ],
      "min": [
        1121.0,
        -36.00019,
        1684.00232
      ]
    },
    {
      "bufferView": 1,
      "componentType": 5125,
      "count": 15030,
      "type": "SCALAR",
      "max": [
        4807.0
      ],
      "min": [
        0.0
      ]
    },
    {
      "bufferView": 2,
      "componentType": 5126,
      "count": 4808,
      "type": "VEC3",
      "max": [
        1.0,
        0.9999999,
        1.0
      ],
      "min": [
        -1.0,
        -0.9999962,
        -1.0
      ]
    },
    {
      "bufferView": 3,
      "componentType": 5126,
      "count": 4808,
      "type": "VEC2",
      "max": [
        1.02207673,
        0.905407548
      ],
      "min": [
        -0.0232406836,
        -1.78813934E-06
      ]
    }
  ],
  "asset": {
    "version": "2.0"
  },
  "buffers": [
    {
      "uri": "data:application/octet-stream;base64,",
      "byteLength": 57696
    },
    {
      "uri": "data:application/octet-stream;base64,",
      "byteLength": 60120
    },
    {
      "uri": "data:application/octet-stream;base64,",
      "byteLength": 57696
    },
    {
      "uri": "data:application/octet-stream;base64,",
      "byteLength": 38464
    }
  ],
  "bufferViews": [
    {
      "buffer": 0,
      "byteLength": 57696,
      "target": 34962
    },
    {
      "buffer": 1,
      "byteLength": 60120,
      "target": 34963
    },
    {
      "buffer": 2,
      "byteLength": 57696,
      "target": 34962
    },
    {
      "buffer": 3,
      "byteLength": 38464,
      "target": 34962
    }
  ],
  "materials": [
    {
      "name": "Plaster",
      "extensions": {
        "KHR_materials_transmission": {},
        "KHR_materials_clearcoat": {},
        "KHR_materials_ior": {
          "ior": 1.0
        },
        "KHR_materials_specular": {
          "specularFactor": 0.5,
          "specularColorFactor": [
            1.0,
            1.0,
            1.0
          ]
        }
      },
      "pbrMetallicRoughness": {
        "baseColorFactor": [
          0.523443162,
          0.523443162,
          0.523443162,
          1.0
        ],
        "metallicFactor": 0.0
      }
    }
  ],
  "meshes": [
    {
      "primitives": [
        {
          "attributes": {
            "POSITION": 0,
            "NORMAL": 2,
            "TEXCOORD_0": 3
          },
          "indices": 1,
          "material": 0
        }
      ]
    }
  ],
  "nodes": [
    {
      "mesh": 0
    }
  ],
  "samplers": [
    {
      "magFilter": 9729,
      "minFilter": 9729
    }
  ],
  "scene": 0,
  "scenes": [
    {
      "nodes": [
        0
      ],
      "extensions": {}
    }
  ],
  "extensions": {}
}