{
  "extensionsUsed": [
    "KHR_materials_transmission",
    "KHR_materials_clearcoat",
    "KHR_materials_ior",
    "KHR_materials_specular"
  ],
  "accessors": [
    {
      "bufferView": 0,
      "componentType": 5126,
      "count": 28906,
      "type": "VEC3",
      "max": [
        298.006775,
        314.700165,
        691.7
      ],
      "min": [
        -186.0,
        -247.626465,
        258.000031
      ]
    },
    {
      "bufferView": 1,
      "componentType": 5125,
      "count": 92847,
      "type": "SCALAR",
      "max": [
        28905.0
      ],
      "min": [
        0.0
      ]
    },
    {
      "bufferView": 2,
      "componentType": 5126,
      "count": 28906,
      "type": "VEC3",
      "max": [
        1.0,
        1.0,
        1.0
      ],
      "min": [
        -1.0,
        -1.0,
        -1.0
      ]
    },
    {
      "bufferView": 3,
      "componentType": 5126,
      "count": 28906,
      "type": "VEC2",
      "max": [
        3.71497631,
        1.85041022
      ],
      "min": [
        -1.60677314,
        -0.81299746
      ]
    }
  ],
  "asset": {
    "version": "2.0"
  },
  "buffers": [
    {
      "uri": "data:application/octet-stream;base64,",
      "byteLength": 346872
    },
    {
      "uri": "data:application/octet-stream;base64,",
      "byteLength": 371388
    },
    {
      "uri": "data:application/octet-stream;base64,",
      "byteLength": 346872
    },
    {
      "uri": "data:application/octet-stream;base64,",
      "byteLength": 231248
    }
  ],
  "bufferViews": [
    {
      "buffer": 0,
      "byteLength": 346872,
      "target": 34962
    },
    {
      "buffer": 1,
      "byteLength": 371388,
      "target": 34963
    },
    {
      "buffer": 2,
      "byteLength": 346872,
      "target": 34962
    },
    {
      "buffer": 3,
      "byteLength": 231248,
      "target": 34962
    }
  ],
  "materials": [
    {
      "name": "Plaster",
      "extensions": {
        "KHR_materials_transmission": {},
        "KHR_materials_clearcoat": {},
        "KHR_materials_ior": {
          "ior": 1.0
        },
        "KHR_materials_specular": {
          "specularFactor": 0.5,
          "specularColorFactor": [
            1.0,
            1.0,
            1.0
          ]
        }
      },
      "pbrMetallicRoughness": {
        "baseColorFactor": [
          0.523443162,
          0.523443162,
          0.523443162,
          1.0
        ],
        "metallicFactor": 0.0
      }
    }
  ],
  "meshes": [
    {
      "primitives": [
        {
          "attributes": {
            "POSITION": 0,
            "NORMAL": 2,
            "TEXCOORD_0": 3
          },
          "indices": 1,
          "material": 0
        }
      ]
    }
  ],
  "nodes": [
    {
      "mesh": 0
    }
  ],
  "samplers": [
    {
      "magFilter": 9729,
      "minFilter": 9729
    }
  ],
  "scene": 0,
  "scenes": [
    {
      "nodes": [
        0
      ],
      "extensions": {}
    }
  ],
  "extensions": {}
}