{
  "extensionsUsed": [
    "KHR_materials_transmission",
    "KHR_materials_clearcoat",
    "KHR_materials_ior",
    "KHR_materials_specular"
  ],
  "accessors": [
    {
      "bufferView": 0,
      "componentType": 5126,
      "count": 8760,
      "type": "VEC3",
      "max": [
        1141.634,
        51.99824,
        1772.62769
      ],
      "min": [
        1015,
        -58.0,
        1667.36829
      ]
    },
    {
      "bufferView": 1,
      "componentType": 5125,
      "count": 36042,
      "type": "SCALAR",
      "max": [
        8759.0
      ],
      "min": [
        0.0
      ]
    },
    {
      "bufferView": 2,
      "componentType": 5126,
      "count": 8760,
      "type": "VEC3",
      "max": [
        1.0,
        1.0,
        1.0
      ],
      "min": [
        -1.0,
        -1.0,
        -1.0
      ]
    },
    {
      "bufferView": 3,
      "componentType": 5126,
      "count": 8760,
      "type": "VEC2",
      "max": [
        3.14644074,
        1.74269569
      ],
      "min": [
        -4.56628752,
        -0.3093344
      ]
    }
  ],
  "asset": {
    "version": "2.0"
  },
  "buffers": [
    {
      "uri": "data:application/octet-stream;base64,",
      "byteLength": 105120
    },
    {
      "uri": "data:application/octet-stream;base64,",
      "byteLength": 144168
    },
    {
      "uri": "data:application/octet-stream;base64,",
      "byteLength": 105120
    },
    {
      "uri": "data:application/octet-stream;base64,",
      "byteLength": 70080
    }
  ],
  "bufferViews": [
    {
      "buffer": 0,
      "byteLength": 105120,
      "target": 34962
    },
    {
      "buffer": 1,
      "byteLength": 144168,
      "target": 34963
    },
    {
      "buffer": 2,
      "byteLength": 105120,
      "target": 34962
    },
    {
      "buffer": 3,
      "byteLength": 70080,
      "target": 34962
    }
  ],
  "materials": [
    {
      "name": "Plaster",
      "extensions": {
        "KHR_materials_transmission": {},
        "KHR_materials_clearcoat": {},
        "KHR_materials_ior": {
          "ior": 1.0
        },
        "KHR_materials_specular": {
          "specularFactor": 0.5,
          "specularColorFactor": [
            1.0,
            1.0,
            1.0
          ]
        }
      },
      "pbrMetallicRoughness": {
        "baseColorFactor": [
          0.523443162,
          0.523443162,
          0.523443162,
          1.0
        ],
        "metallicFactor": 0.0
      }
    }
  ],
  "meshes": [
    {
      "primitives": [
        {
          "attributes": {
            "POSITION": 0,
            "NORMAL": 2,
            "TEXCOORD_0": 3
          },
          "indices": 1,
          "material": 0
        }
      ]
    }
  ],
  "nodes": [
    {
      "mesh": 0
    }
  ],
  "samplers": [
    {
      "magFilter": 9729,
      "minFilter": 9729
    }
  ],
  "scene": 0,
  "scenes": [
    {
      "nodes": [
        0
      ],
      "extensions": {}
    }
  ],
  "extensions": {}
}