{
  "extensionsUsed": [
    "KHR_materials_transmission",
    "KHR_materials_clearcoat",
    "KHR_materials_ior",
    "KHR_materials_specular"
  ],
  "accessors": [
    {
      "bufferView": 0,
      "componentType": 5126,
      "count": 26741,
      "type": "VEC3",
      "max": [
        587.0,
        230.704681,
        1816.506
      ],
      "min": [
        58.4995079,
        -263.141663,
        1379.60754
      ]
    },
    {
      "bufferView": 1,
      "componentType": 5125,
      "count": 87054,
      "type": "SCALAR",
      "max": [
        26740.0
      ],
      "min": [
        0.0
      ]
    },
    {
      "bufferView": 2,
      "componentType": 5126,
      "count": 26741,
      "type": "VEC3",
      "max": [
        1.0,
        1.0,
        1.0
      ],
      "min": [
        -1.0,
        -1.0,
        -1.0
      ]
    },
    {
      "bufferView": 3,
      "componentType": 5126,
      "count": 26741,
      "type": "VEC2",
      "max": [
        4.227984,
        2.479383
      ],
      "min": [
        -4.15356445,
        -2.28739333
      ]
    }
  ],
  "asset": {
    "version": "2.0"
  },
  "buffers": [
    {
      "uri": "data:application/octet-stream;base64,",
      "byteLength": 320892
    },
    {
      "uri": "data:application/octet-stream;base64,",
      "byteLength": 348216
    },
    {
      "uri": "data:application/octet-stream;base64,",
      "byteLength": 320892
    },
    {
      "uri": "data:application/octet-stream;base64,",
      "byteLength": 213928
    }
  ],
  "bufferViews": [
    {
      "buffer": 0,
      "byteLength": 320892,
      "target": 34962
    },
    {
      "buffer": 1,
      "byteLength": 348216,
      "target": 34963
    },
    {
      "buffer": 2,
      "byteLength": 320892,
      "target": 34962
    },
    {
      "buffer": 3,
      "byteLength": 213928,
      "target": 34962
    }
  ],
  "materials": [
    {
      "name": "Plaster",
      "extensions": {
        "KHR_materials_transmission": {},
        "KHR_materials_clearcoat": {},
        "KHR_materials_ior": {
          "ior": 1.0
        },
        "KHR_materials_specular": {
          "specularFactor": 0.5,
          "specularColorFactor": [
            1.0,
            1.0,
            1.0
          ]
        }
      },
      "pbrMetallicRoughness": {
        "baseColorFactor": [
          0.523443162,
          0.523443162,
          0.523443162,
          1.0
        ],
        "metallicFactor": 0.0
      }
    }
  ],
  "meshes": [
    {
      "primitives": [
        {
          "attributes": {
            "POSITION": 0,
            "NORMAL": 2,
            "TEXCOORD_0": 3
          },
          "indices": 1,
          "material": 0
        }
      ]
    }
  ],
  "nodes": [
    {
      "mesh": 0
    }
  ],
  "samplers": [
    {
      "magFilter": 9729,
      "minFilter": 9729
    }
  ],
  "scene": 0,
  "scenes": [
    {
      "nodes": [
        0
      ],
      "extensions": {}
    }
  ],
  "extensions": {}
}