{
  "extensionsUsed": [
    "KHR_materials_transmission",
    "KHR_materials_clearcoat",
    "KHR_materials_ior",
    "KHR_materials_specular"
  ],
  "accessors": [
    {
      "bufferView": 0,
      "componentType": 5126,
      "count": 11568,
      "type": "VEC3",
      "max": [
        189.2,
        188.25,
        284.469025
      ],
      "min": [
        -265.35,
        -188.25,
        -0.006685032
      ]
    },
    {
      "bufferView": 1,
      "componentType": 5125,
      "count": 37797,
      "type": "SCALAR",
      "max": [
        11567.0
      ],
      "min": [
        0.0
      ]
    },
    {
      "bufferView": 2,
      "componentType": 5126,
      "count": 11568,
      "type": "VEC3",
      "max": [
        1.0,
        1.0,
        1.0
      ],
      "min": [
        -1.0,
        -1.0,
        -1.0
      ]
    },
    {
      "bufferView": 3,
      "componentType": 5126,
      "count": 11568,
      "type": "VEC2",
      "max": [
        1.62525582,
        1.58819485
      ],
      "min": [
        -1.34229875,
        -0.6039778
      ]
    }
  ],
  "asset": {
    "version": "2.0"
  },
  "buffers": [
    {
      "uri": "data:application/octet-stream;base64,",
      "byteLength": 138816
    },
    {
      "uri": "data:application/octet-stream;base64,",
      "byteLength": 151188
    },
    {
      "uri": "data:application/octet-stream;base64,",
      "byteLength": 138816
    },
    {
      "uri": "data:application/octet-stream;base64,",
      "byteLength": 92544
    }
  ],
  "bufferViews": [
    {
      "buffer": 0,
      "byteLength": 138816,
      "target": 34962
    },
    {
      "buffer": 1,
      "byteLength": 151188,
      "target": 34963
    },
    {
      "buffer": 2,
      "byteLength": 138816,
      "target": 34962
    },
    {
      "buffer": 3,
      "byteLength": 92544,
      "target": 34962
    }
  ],
  "materials": [
    {
      "name": "Plaster",
      "extensions": {
        "KHR_materials_transmission": {},
        "KHR_materials_clearcoat": {},
        "KHR_materials_ior": {
          "ior": 1.0
        },
        "KHR_materials_specular": {
          "specularFactor": 0.5,
          "specularColorFactor": [
            1.0,
            1.0,
            1.0
          ]
        }
      },
      "pbrMetallicRoughness": {
        "baseColorFactor": [
          0.523443162,
          0.523443162,
          0.523443162,
          1.0
        ],
        "metallicFactor": 0.0
      }
    }
  ],
  "meshes": [
    {
      "primitives": [
        {
          "attributes": {
            "POSITION": 0,
            "NORMAL": 2,
            "TEXCOORD_0": 3
          },
          "indices": 1,
          "material": 0
        }
      ]
    }
  ],
  "nodes": [
    {
      "mesh": 0
    }
  ],
  "samplers": [
    {
      "magFilter": 9729,
      "minFilter": 9729
    }
  ],
  "scene": 0,
  "scenes": [
    {
      "nodes": [
        0
      ],
      "extensions": {}
    }
  ],
  "extensions": {}
}