{
  "extensionsUsed": [
    "KHR_materials_transmission",
    "KHR_materials_clearcoat",
    "KHR_materials_ior",
    "KHR_materials_specular"
  ],
  "accessors": [
    {
      "bufferView": 0,
      "componentType": 5126,
      "count": 19190,
      "type": "VEC3",
      "max": [
        267.435547,
        -81.4648743,
        1580.41174
      ],
      "min": [
        51.4356956,
        -263.8195,
        376.0971
      ]
    },
    {
      "bufferView": 1,
      "componentType": 5125,
      "count": 73314,
      "type": "SCALAR",
      "max": [
        19189.0
      ],
      "min": [
        0.0
      ]
    },
    {
      "bufferView": 2,
      "componentType": 5126,
      "count": 19190,
      "type": "VEC3",
      "max": [
        1.0,
        1.0,
        1.0
      ],
      "min": [
        -1.0,
        -1.0,
        -1.0
      ]
    },
    {
      "bufferView": 3,
      "componentType": 5126,
      "count": 19190,
      "type": "VEC2",
      "max": [
        2.54773784,
        1.63569474
      ],
      "min": [
        -2.80258512,
        -0.71345973
      ]
    }
  ],
  "asset": {
    "version": "2.0"
  },
  "buffers": [
    {
      "uri": "data:application/octet-stream;base64,",
      "byteLength": 230280
    },
    {
      "uri": "data:application/octet-stream;base64,",
      "byteLength": 293256
    },
    {
      "uri": "data:application/octet-stream;base64,",
      "byteLength": 230280
    },
    {
      "uri": "data:application/octet-stream;base64,",
      "byteLength": 153520
    }
  ],
  "bufferViews": [
    {
      "buffer": 0,
      "byteLength": 230280,
      "target": 34962
    },
    {
      "buffer": 1,
      "byteLength": 293256,
      "target": 34963
    },
    {
      "buffer": 2,
      "byteLength": 230280,
      "target": 34962
    },
    {
      "buffer": 3,
      "byteLength": 153520,
      "target": 34962
    }
  ],
  "materials": [
    {
      "name": "Plaster",
      "extensions": {
        "KHR_materials_transmission": {},
        "KHR_materials_clearcoat": {},
        "KHR_materials_ior": {
          "ior": 1.0
        },
        "KHR_materials_specular": {
          "specularFactor": 0.5,
          "specularColorFactor": [
            1.0,
            1.0,
            1.0
          ]
        }
      },
      "pbrMetallicRoughness": {
        "baseColorFactor": [
          0.523443162,
          0.523443162,
          0.523443162,
          1.0
        ],
        "metallicFactor": 0.0
      }
    }
  ],
  "meshes": [
    {
      "primitives": [
        {
          "attributes": {
            "POSITION": 0,
            "NORMAL": 2,
            "TEXCOORD_0": 3
          },
          "indices": 1,
          "material": 0
        }
      ]
    }
  ],
  "nodes": [
    {
      "mesh": 0
    }
  ],
  "samplers": [
    {
      "magFilter": 9729,
      "minFilter": 9729
    }
  ],
  "scene": 0,
  "scenes": [
    {
      "nodes": [
        0
      ],
      "extensions": {}
    }
  ],
  "extensions": {}
}