{
  "extensionsUsed": [
    "KHR_materials_transmission",
    "KHR_materials_clearcoat",
    "KHR_materials_ior",
    "KHR_materials_specular"
  ],
  "accessors": [
    {
      "bufferView": 0,
      "componentType": 5126,
      "count": 18714,
      "type": "VEC3",
      "max": [
        1156.55017,
        110.994492,
        1835.04688
      ],
      "min": [
        539.0,
        -116.598785,
        1625.0
      ]
    },
    {
      "bufferView": 1,
      "componentType": 5125,
      "count": 71460,
      "type": "SCALAR",
      "max": [
        18713.0
      ],
      "min": [
        0.0
      ]
    },
    {
      "bufferView": 2,
      "componentType": 5126,
      "count": 18714,
      "type": "VEC3",
      "max": [
        1.0,
        1.0,
        1.0
      ],
      "min": [
        -1.0,
        -1.0,
        -1.0
      ]
    },
    {
      "bufferView": 3,
      "componentType": 5126,
      "count": 18714,
      "type": "VEC2",
      "max": [
        3.243317,
        1.6281538
      ],
      "min": [
        -0.8500795,
        -0.806901455
      ]
    }
  ],
  "asset": {
    "version": "2.0"
  },
  "buffers": [
    {
      "uri": "data:application/octet-stream;base64,",
      "byteLength": 224568
    },
    {
      "uri": "data:application/octet-stream;base64,",
      "byteLength": 285840
    },
    {
      "uri": "data:application/octet-stream;base64,",
      "byteLength": 224568
    },
    {
      "uri": "data:application/octet-stream;base64,",
      "byteLength": 149712
    }
  ],
  "bufferViews": [
    {
      "buffer": 0,
      "byteLength": 224568,
      "target": 34962
    },
    {
      "buffer": 1,
      "byteLength": 285840,
      "target": 34963
    },
    {
      "buffer": 2,
      "byteLength": 224568,
      "target": 34962
    },
    {
      "buffer": 3,
      "byteLength": 149712,
      "target": 34962
    }
  ],
  "materials": [
    {
      "name": "Plaster",
      "extensions": {
        "KHR_materials_transmission": {},
        "KHR_materials_clearcoat": {},
        "KHR_materials_ior": {
          "ior": 1.0
        },
        "KHR_materials_specular": {
          "specularFactor": 0.5,
          "specularColorFactor": [
            1.0,
            1.0,
            1.0
          ]
        }
      },
      "pbrMetallicRoughness": {
        "baseColorFactor": [
          0.523443162,
          0.523443162,
          0.523443162,
          1.0
        ],
        "metallicFactor": 0.0
      }
    }
  ],
  "meshes": [
    {
      "primitives": [
        {
          "attributes": {
            "POSITION": 0,
            "NORMAL": 2,
            "TEXCOORD_0": 3
          },
          "indices": 1,
          "material": 0
        }
      ]
    }
  ],
  "nodes": [
    {
      "mesh": 0
    }
  ],
  "samplers": [
    {
      "magFilter": 9729,
      "minFilter": 9729
    }
  ],
  "scene": 0,
  "scenes": [
    {
      "nodes": [
        0
      ],
      "extensions": {}
    }
  ],
  "extensions": {}
}